<svg xmlns="http://www.w3.org/2000/svg" viewBox="0 0 1035.09 394.11"><path d="M154.26,210.86l-7-20.43h-56l-7,20.43H42.71l53.44-142h46l53.64,142Zm-35.12-105.8L101,158.49h36.19Z" fill="#e92835"/><path d="M227.49,210.86,187.05,108h34.48l23.21,65.14L268.15,108h34.7L262.41,210.86Z" fill="#e92835"/><path d="M305.83,159.35c0-28.95,21.08-53.86,56-53.86,35.34,0,56.2,24.91,56.2,53.86s-20.86,54.07-56.2,54.07C326.91,213.42,305.83,188.3,305.83,159.35Zm78.55,0c0-13.63-8.09-24.91-22.56-24.91-14.26,0-22.14,11.28-22.14,24.91,0,13.83,7.88,25.12,22.14,25.12C376.29,184.47,384.38,173.18,384.38,159.35Z" fill="#e92835"/><path d="M448.89,210.86v-110H409.08V68.87h116v31.94H485.5V210.86Z" fill="#fff"/><path d="M516,159.35c0-28.95,21.07-53.86,56-53.86,35.34,0,56.2,24.91,56.2,53.86s-20.86,54.07-56.2,54.07C537,213.42,516,188.3,516,159.35Zm78.55,0c0-13.63-8.09-24.91-22.57-24.91-14.26,0-22.14,11.28-22.14,24.91,0,13.83,7.88,25.12,22.14,25.12C586.41,184.47,594.5,173.18,594.5,159.35Z" fill="#fff"/><path d="M714.77,210.86V198.52c-6.38,7.23-18.3,14.9-35.55,14.9-23.41,0-33.84-13.2-33.84-32.15V108h32.78v59.82c0,12.35,6.38,16.61,17,16.61,9.36,0,15.75-5.11,19.58-10V108h32.79V210.86Z" fill="#fff"/><path d="M764.59,159.35c0-32.15,24-53.86,56.2-53.86,22.14,0,36,9.79,42.15,18.94l-21.29,19.8c-4-6-10.64-9.79-19.37-9.79-13.63,0-24.06,9.37-24.06,24.91s10.43,25.12,24.06,25.12a23.14,23.14,0,0,0,19.37-10l21.29,20c-6.18,8.94-20,18.95-42.15,18.95C788.64,213.42,764.59,191.7,764.59,159.35Z" fill="#fff"/><path d="M947.66,210.86V151c0-12.56-6.6-16.6-17-16.6-9.58,0-16,5.32-19.79,10v66.41H878.05v-142h32.79V120.6c6.17-7.23,18.3-15.11,35.55-15.11,23.41,0,34.06,13.2,34.06,32.14v73.23Z" fill="#fff"/><path d="M55,289.75a4,4,0,0,1,.5,2,3.81,3.81,0,0,1-1.1,2.8,3.75,3.75,0,0,1-2.74,1.1A3.7,3.7,0,0,1,49,294.54a3.77,3.77,0,0,1-1.1-2.83,4.76,4.76,0,0,1,.32-1.64c.22-.56.44-1.11.68-1.63l3.83-8.09h3.62l-2.84,8A3.39,3.39,0,0,1,55,289.75Zm9.65,0a4,4,0,0,1,.5,2,3.81,3.81,0,0,1-1.1,2.8,3.75,3.75,0,0,1-2.74,1.1,3.7,3.7,0,0,1-2.66-1.07,3.77,3.77,0,0,1-1.1-2.83,4.76,4.76,0,0,1,.32-1.64c.22-.56.44-1.11.68-1.63l3.83-8.09H66l-2.84,8A3.39,3.39,0,0,1,64.61,289.75Z" fill="#fff"/><path d="M76.32,283.47H110.8v6.18H83.13V305H107.9v6.18H83.13V327h28.53v6.18H76.32Z" fill="#fff"/><path d="M117.76,295.61h7.66l9.3,13.76,9.44-13.76h7.31l-12.35,18.31,13.27,19.23h-7.74l-9.93-14.76-10.43,14.76h-7.45l13.48-19.23Z" fill="#fff"/><path d="M174.24,301.29a13,13,0,0,0-6.56,1.63,11.57,11.57,0,0,0-4.51,4.61,15.48,15.48,0,0,0,0,13.77,11.71,11.71,0,0,0,4.4,4.64,12.24,12.24,0,0,0,6.42,1.67,17,17,0,0,0,6.53-1.2,12.45,12.45,0,0,0,4.82-3.48l3.76,3.83a16.57,16.57,0,0,1-6.49,4.9,22.28,22.28,0,0,1-8.9,1.7A19.37,19.37,0,0,1,164,331a17.11,17.11,0,0,1-6.63-6.71,21.55,21.55,0,0,1,0-19.69,17,17,0,0,1,6.63-6.74,19.37,19.37,0,0,1,9.73-2.41,23.77,23.77,0,0,1,8.55,1.45,16.66,16.66,0,0,1,6.35,4.22L185,305.61A14.87,14.87,0,0,0,174.24,301.29Z" fill="#fff"/><path d="M225.12,300.54q4.47,5.15,4.47,14.3c0,1,0,1.65-.07,2.13H199.86a12.82,12.82,0,0,0,4.22,8,12.54,12.54,0,0,0,8.48,3,15.92,15.92,0,0,0,6.21-1.21,14.68,14.68,0,0,0,5-3.41l3.62,3.76a18.93,18.93,0,0,1-6.67,4.62,22.18,22.18,0,0,1-8.65,1.63,19.9,19.9,0,0,1-9.83-2.38,16.67,16.67,0,0,1-6.67-6.7,20.13,20.13,0,0,1-2.38-9.87,19.92,19.92,0,0,1,2.38-9.83,17.32,17.32,0,0,1,6.63-6.74,19.17,19.17,0,0,1,9.72-2.44Q220.65,295.4,225.12,300.54Zm-1.49,11.32a10.86,10.86,0,0,0-11.63-11,11.85,11.85,0,0,0-8.27,3,12.53,12.53,0,0,0-3.94,8Z" fill="#fff"/><path d="M239,280.49h6.6v52.66H239Z" fill="#fff"/><path d="M259.18,280.49h6.6v52.66h-6.6Z" fill="#fff"/><path d="M307.29,300.54q4.47,5.15,4.47,14.3c0,1,0,1.65-.07,2.13H282a12.82,12.82,0,0,0,4.22,8,12.54,12.54,0,0,0,8.48,3,15.92,15.92,0,0,0,6.21-1.21,14.68,14.68,0,0,0,5-3.41l3.62,3.76a18.93,18.93,0,0,1-6.67,4.62,22.18,22.18,0,0,1-8.65,1.63,19.9,19.9,0,0,1-9.83-2.38,16.67,16.67,0,0,1-6.67-6.7,20.13,20.13,0,0,1-2.38-9.87,19.92,19.92,0,0,1,2.38-9.83,17.32,17.32,0,0,1,6.63-6.74,19.17,19.17,0,0,1,9.72-2.44Q302.82,295.4,307.29,300.54Zm-1.49,11.32a10.86,10.86,0,0,0-11.63-11,11.85,11.85,0,0,0-8.27,3,12.53,12.53,0,0,0-3.94,8Z" fill="#fff"/><path d="M352,299.26q3.75,3.87,3.76,10.68v23.21h-6.6V311.72a10.06,10.06,0,0,0-2.66-7.42,10,10,0,0,0-7.35-2.66,11.3,11.3,0,0,0-8.19,3.23,12.68,12.68,0,0,0-3.59,8.19v20.09h-6.6V295.61h6.6v7.95q3.76-8,14.27-8.16Q348.24,295.4,352,299.26Z" fill="#fff"/><path d="M387.69,330.66a16.15,16.15,0,0,1-8.8,2.77,10,10,0,0,1-7.24-2.66q-2.76-2.67-2.76-8v-20.8h-5.33v-5h5.33V286.81h6.67v10.08h11.49v5H375.56v19.59c0,2.08.37,3.57,1.13,4.47a4.2,4.2,0,0,0,3.41,1.35,11.88,11.88,0,0,0,5.82-1.78Z" fill="#fff"/><path d="M436.76,290.53a24.51,24.51,0,0,0-6.85-1.1A12.65,12.65,0,0,0,423,291.1a5.18,5.18,0,0,0-2.59,4.58A6,6,0,0,0,422,300a11.08,11.08,0,0,0,3.84,2.63q2.26,1,6.31,2.23a72.12,72.12,0,0,1,8.16,3,14.13,14.13,0,0,1,5.32,4.23,11.65,11.65,0,0,1,2.2,7.41,12.43,12.43,0,0,1-2.3,7.45,14.7,14.7,0,0,1-6.46,4.93,24.54,24.54,0,0,1-9.55,1.74,27.72,27.72,0,0,1-10.64-2.13,29,29,0,0,1-8.94-5.67l3.05-5.89a25.62,25.62,0,0,0,8,5.35,21.92,21.92,0,0,0,8.63,1.88,13.72,13.72,0,0,0,7.84-1.95,6.08,6.08,0,0,0,2.87-5.28,6.16,6.16,0,0,0-1.56-4.33,10.88,10.88,0,0,0-3.94-2.7q-2.37-1-6.42-2.2a64.46,64.46,0,0,1-8.09-2.91,14,14,0,0,1-5.29-4.18,11.58,11.58,0,0,1-2.16-7.31,11.71,11.71,0,0,1,2.2-7,13.87,13.87,0,0,1,6.17-4.68,24.14,24.14,0,0,1,9.23-1.63,30.62,30.62,0,0,1,16.39,4.82l-2.84,6.1A29.12,29.12,0,0,0,436.76,290.53Z" fill="#fff"/><path d="M516.62,299.3q3.69,3.9,3.69,10.64v23.21h-6.67V311.72a10.28,10.28,0,0,0-2.59-7.45,9.4,9.4,0,0,0-7.13-2.7,10.75,10.75,0,0,0-8.37,3.76,13.89,13.89,0,0,0-3.05,9.3v18.52h-6.67V311.72a10.4,10.4,0,0,0-2.56-7.45,9.38,9.38,0,0,0-7.16-2.7,10.86,10.86,0,0,0-8.41,3.76,13.81,13.81,0,0,0-3.09,9.3v18.52H458V295.61h6.6v7.87q3.69-7.94,14-8.08a14.32,14.32,0,0,1,8.62,2.48,12.23,12.23,0,0,1,4.65,6.95q3.48-9.29,14.62-9.43Q512.93,295.4,516.62,299.3Z" fill="#fff"/><path d="M555,333.15V327.9q-4.18,5.53-13.12,5.53a15,15,0,0,1-6.85-1.49,10.82,10.82,0,0,1-4.54-4.12,11.05,11.05,0,0,1-1.6-5.89,9.66,9.66,0,0,1,3.72-8q3.74-2.94,10.4-3h11.92v-1.78a7.75,7.75,0,0,0-2.45-6.14q-2.44-2.16-7.13-2.16a20.44,20.44,0,0,0-11.56,4L531,300.36a34.2,34.2,0,0,1,7.48-3.79,25.6,25.6,0,0,1,8.2-1.17q7,0,10.86,3.44t3.9,9.61l.07,24.7Zm-3.94-7.42a8.76,8.76,0,0,0,3.87-5.92V316h-11q-4.47,0-6.63,1.35a4.64,4.64,0,0,0-2.17,4.26,5.53,5.53,0,0,0,2.2,4.61,9.35,9.35,0,0,0,5.89,1.71A13.42,13.42,0,0,0,551.07,325.73Z" fill="#fff"/><path d="M585.17,297.56a15.5,15.5,0,0,1,8.09-2.16v6.38a12.06,12.06,0,0,0-13.34,11.57v19.8h-6.6V295.61h6.6v8.09A13.6,13.6,0,0,1,585.17,297.56Z" fill="#fff"/><path d="M620.58,330.66a16.15,16.15,0,0,1-8.8,2.77,10,10,0,0,1-7.24-2.66c-1.84-1.78-2.77-4.46-2.77-8v-20.8h-5.32v-5h5.32V286.81h6.67v10.08h11.5v5h-11.5v19.59q0,3.12,1.14,4.47a4.2,4.2,0,0,0,3.41,1.35,11.82,11.82,0,0,0,5.81-1.78Z" fill="#fff"/><path d="M669.65,290.53a24.51,24.51,0,0,0-6.85-1.1,12.65,12.65,0,0,0-6.92,1.67,5.18,5.18,0,0,0-2.59,4.58,6,6,0,0,0,1.56,4.29,11.13,11.13,0,0,0,3.83,2.63c1.52.64,3.62,1.38,6.32,2.23a72.12,72.12,0,0,1,8.16,3,14.21,14.21,0,0,1,5.32,4.23,11.65,11.65,0,0,1,2.2,7.41,12.43,12.43,0,0,1-2.3,7.45,14.76,14.76,0,0,1-6.46,4.93,24.54,24.54,0,0,1-9.55,1.74,27.72,27.72,0,0,1-10.64-2.13,29,29,0,0,1-8.94-5.67l3.05-5.89a25.5,25.5,0,0,0,8,5.35,21.91,21.91,0,0,0,8.62,1.88,13.74,13.74,0,0,0,7.85-1.95,6.08,6.08,0,0,0,2.87-5.28,6.16,6.16,0,0,0-1.56-4.33,11,11,0,0,0-3.94-2.7q-2.38-1-6.42-2.2a64.46,64.46,0,0,1-8.09-2.91,13.94,13.94,0,0,1-5.29-4.18,11.58,11.58,0,0,1-2.16-7.31,11.71,11.71,0,0,1,2.2-7,13.87,13.87,0,0,1,6.17-4.68,24.11,24.11,0,0,1,9.23-1.63,30.62,30.62,0,0,1,16.39,4.82l-2.84,6.1A29.12,29.12,0,0,0,669.65,290.53Z" fill="#fff"/><path d="M716.48,297.81a17.34,17.34,0,0,1,6.81,6.7,19.54,19.54,0,0,1,2.45,9.83,19.74,19.74,0,0,1-2.45,9.87,17.31,17.31,0,0,1-6.81,6.74,22,22,0,0,1-20,0,17.37,17.37,0,0,1-6.81-6.71,21.09,21.09,0,0,1,0-19.73,17.34,17.34,0,0,1,6.81-6.7,22,22,0,0,1,20,0Zm-16.53,5a11.69,11.69,0,0,0-4.47,4.72,14.33,14.33,0,0,0-1.6,6.84,14.76,14.76,0,0,0,1.6,7,11.5,11.5,0,0,0,4.47,4.72,12.82,12.82,0,0,0,6.56,1.66,12.69,12.69,0,0,0,6.49-1.66,11.5,11.5,0,0,0,4.47-4.72,14.76,14.76,0,0,0,1.6-7,14.33,14.33,0,0,0-1.6-6.84,11.69,11.69,0,0,0-4.47-4.72,12.43,12.43,0,0,0-6.49-1.71A12.56,12.56,0,0,0,700,302.85Z" fill="#fff"/><path d="M735.32,280.49h6.6v52.66h-6.6Z" fill="#fff"/><path d="M788.4,295.61v37.54h-6.67V325.2q-3.69,8-13.91,8.16-6.52,0-10.22-3.87t-3.69-10.68v-23.2h6.67V317q0,4.75,2.59,7.41a9.47,9.47,0,0,0,7.13,2.66,10.52,10.52,0,0,0,8.34-3.72,14,14,0,0,0,3.09-9.33V295.61Z" fill="#fff"/><path d="M821.39,330.66a16.12,16.12,0,0,1-8.8,2.77,10,10,0,0,1-7.23-2.66q-2.77-2.67-2.77-8v-20.8h-5.32v-5h5.32V286.81h6.67v10.08h11.49v5H809.26v19.59a7,7,0,0,0,1.13,4.47,4.22,4.22,0,0,0,3.41,1.35,11.82,11.82,0,0,0,5.82-1.78Z" fill="#fff"/><path d="M835.62,281.84a4.56,4.56,0,0,1,0,6.1,4.19,4.19,0,0,1-5.89,0,4.56,4.56,0,0,1,0-6.1,4.21,4.21,0,0,1,5.89,0Zm-6.21,13.77H836v37.54h-6.6Z" fill="#fff"/><path d="M874.43,297.81a17.43,17.43,0,0,1,6.82,6.7,19.53,19.53,0,0,1,2.44,9.83,19.74,19.74,0,0,1-2.44,9.87,17.4,17.4,0,0,1-6.82,6.74,22,22,0,0,1-20,0,17.37,17.37,0,0,1-6.81-6.71,21.09,21.09,0,0,1,0-19.73,17.34,17.34,0,0,1,6.81-6.7,22,22,0,0,1,20,0Zm-16.53,5a11.69,11.69,0,0,0-4.47,4.72,14.33,14.33,0,0,0-1.6,6.84,14.76,14.76,0,0,0,1.6,7,11.5,11.5,0,0,0,4.47,4.72,13.67,13.67,0,0,0,13.06,0,11.63,11.63,0,0,0,4.47-4.72,14.87,14.87,0,0,0,1.59-7,14.44,14.44,0,0,0-1.59-6.84,11.82,11.82,0,0,0-4.47-4.72,13.32,13.32,0,0,0-13.06,0Z" fill="#fff"/><path d="M924.14,299.26q3.76,3.87,3.76,10.68v23.21h-6.6V311.72a10.06,10.06,0,0,0-2.66-7.42,9.93,9.93,0,0,0-7.34-2.66,11.32,11.32,0,0,0-8.2,3.23,12.67,12.67,0,0,0-3.58,8.19v20.09h-6.6V295.61h6.6v7.95q3.75-8,14.26-8.16Q920.38,295.4,924.14,299.26Z" fill="#fff"/><path d="M955,301.64a18.32,18.32,0,0,0-5.35-.85,9.16,9.16,0,0,0-4.79,1.1,3.67,3.67,0,0,0-1.81,3.37,3.75,3.75,0,0,0,2,3.44,29.65,29.65,0,0,0,6.14,2.38,46.23,46.23,0,0,1,6.38,2.27,11.4,11.4,0,0,1,4.23,3.33,10.35,10.35,0,0,1-2.28,13.91,17.08,17.08,0,0,1-10,2.77,24.88,24.88,0,0,1-8.12-1.35,18.43,18.43,0,0,1-6.64-3.83l2.49-4.83a17.56,17.56,0,0,0,5.78,3.41,19.28,19.28,0,0,0,6.71,1.28,10,10,0,0,0,5.25-1.21,4,4,0,0,0,2-3.69,4.19,4.19,0,0,0-2.1-3.83,28.79,28.79,0,0,0-6.35-2.56,43.2,43.2,0,0,1-6.14-2.16,10.87,10.87,0,0,1-4-3.23,8.71,8.71,0,0,1-1.67-5.53A8.93,8.93,0,0,1,940.6,298a16.58,16.58,0,0,1,9.58-2.63,23.92,23.92,0,0,1,6.71,1,20.42,20.42,0,0,1,5.71,2.59l-2.41,5A22.42,22.42,0,0,0,955,301.64Z" fill="#fff"/><path d="M975.9,281.56a3.74,3.74,0,0,1,1.1,2.84,4.49,4.49,0,0,1-.32,1.63c-.21.57-.43,1.11-.67,1.63l-3.83,8.09h-3.62l2.84-8a3.39,3.39,0,0,1-1.49-1.38,3.93,3.93,0,0,1-.5-2,3.83,3.83,0,0,1,1.1-2.81,3.89,3.89,0,0,1,5.39,0Zm9.65,0a3.74,3.74,0,0,1,1.1,2.84,4.69,4.69,0,0,1-.31,1.63c-.22.57-.44,1.11-.68,1.63l-3.83,8.09h-3.62l2.84-8a3.39,3.39,0,0,1-1.49-1.38,3.93,3.93,0,0,1-.5-2,3.83,3.83,0,0,1,1.1-2.81,3.89,3.89,0,0,1,5.39,0Z" fill="#fff"/></svg>